<svg width="35" height="34" viewBox="0 0 35 34" fill="none" xmlns="http://www.w3.org/2000/svg">
<path d="M17.5 27.7786C11.2032 27.7786 6.15 22.8468 6.15 16.875C6.15 10.9031 11.2032 5.97141 17.5 5.97141C23.7968 5.97141 28.85 10.9031 28.85 16.875C28.85 22.8468 23.7968 27.7786 17.5 27.7786Z" stroke="black" stroke-width="2.3"/>
<path d="M18.6671 19.3888L19.5282 18.5581C19.6442 18.4476 19.7909 18.372 19.9506 18.3404C20.1103 18.3088 20.276 18.3226 20.4277 18.3801L21.4772 18.7844C21.6305 18.8444 21.762 18.9468 21.855 19.0788C21.948 19.2108 21.9985 19.3664 22 19.526V21.3802C21.9991 21.4888 21.9754 21.5961 21.9304 21.6956C21.8854 21.7951 21.82 21.8848 21.7381 21.9593C21.6563 22.0338 21.5596 22.0915 21.454 22.129C21.3483 22.1665 21.2359 22.183 21.1235 22.1775C13.7696 21.7362 12.2857 15.7286 12.0051 13.4294C11.9921 13.3165 12.004 13.2022 12.04 13.0941C12.0761 12.9859 12.1355 12.8864 12.2143 12.802C12.2931 12.7175 12.3895 12.6502 12.4972 12.6043C12.605 12.5584 12.7215 12.535 12.8393 12.5357H14.696C14.8617 12.5362 15.0235 12.5845 15.1605 12.6744C15.2975 12.7642 15.4035 12.8916 15.4649 13.0401L15.8839 14.0525C15.9455 14.1982 15.9612 14.3583 15.9291 14.5126C15.897 14.6669 15.8184 14.8087 15.7032 14.9202L14.8421 15.7509C14.8421 15.7509 15.338 18.9883 18.6671 19.3888Z" fill="black"/>
</svg>
